# xmcd
#
# Track frame offsets:
#	150
#	30529
#	44069
#	57607
#	73656
#	85895
#	111134
#	129550
#	152593
#	172343
#	189465
#	204272
#	215830
#	234306
#	255951
#
# Disc length: 4043 seconds
#
# Revision: 1
# Processed by: cddbd v1.5PL3 Copyright (c) Steve Scherf et al.
# Submitted via: audiograbber 1.82.02
#
DISCID=d90fc90f
DTITLE=Chrome Johnson - Chrome Johnson
DYEAR=2003
DGENRE=Rockabilly
TTITLE0=Spaghettadillo
TTITLE1=Rio Grande
TTITLE2=Against The Grain
TTITLE3=Wastin' My Tears
TTITLE4=Folsom Prison Blues
TTITLE5=Born To Lose
TTITLE6=Handful Of Gimme
TTITLE7=Harry's Arcade
TTITLE8=Shadowspell
TTITLE9=Sinkin' Like A Stone
TTITLE10=Gypsy Train
TTITLE11=Supernatural Disaster
TTITLE12=Firewater
TTITLE13=That's No Way To Get Along
TTITLE14=All Night Long-King Bee
EXTD=
EXTT0=
EXTT1=
EXTT2=
EXTT3=
EXTT4=
EXTT5=
EXTT6=
EXTT7=
EXTT8=
EXTT9=
EXTT10=
EXTT11=
EXTT12=
EXTT13=
EXTT14=
PLAYORDER=
